<svg width="16" height="16" viewBox="0 0 16 16" fill="none" xmlns="http://www.w3.org/2000/svg">
<path d="M12.6667 6.00004V5.21204C12.6667 4.08337 12.6667 3.51871 12.4987 3.06804C12.3651 2.70987 12.156 2.38461 11.8857 2.1143C11.6154 1.84399 11.2902 1.63496 10.932 1.50137C10.4813 1.33337 9.91667 1.33337 8.788 1.33337C6.81267 1.33337 5.82467 1.33337 5.036 1.62737C4.40898 1.86107 3.83955 2.22687 3.36634 2.69997C2.89312 3.17307 2.52718 3.74241 2.29333 4.36937C2 5.15804 2 6.14604 2 8.12137V9.81804C2 11.8647 2 12.8874 2.532 13.598C2.68439 13.8016 2.86511 13.9823 3.06867 14.1347C3.77933 14.6667 4.802 14.6667 6.84867 14.6667H9.66667" stroke="#7B9FC3" stroke-linecap="round" stroke-linejoin="round"/>
<path d="M7.33333 9.55537H7.89333C8.33467 9.55537 8.55533 9.55537 8.732 9.67204C8.90933 9.78804 9.008 9.99737 9.20533 10.4154L10.2667 12.6667L11.7333 8.00004L12.7947 10.2514C12.992 10.6694 13.0907 10.8787 13.268 10.9947C13.4453 11.1107 13.6653 11.1114 14.1067 11.1114H14.6667M2 8.00004C2 7.41073 2.2341 6.84556 2.65081 6.42885C3.06751 6.01214 3.63269 5.77804 4.222 5.77804H4.96267C5.30733 5.77804 5.47933 5.77804 5.62067 5.74004C5.80914 5.68932 5.98097 5.58994 6.11892 5.45187C6.25687 5.3138 6.3561 5.14189 6.40667 4.95337C6.44467 4.81204 6.44467 4.64004 6.44467 4.29537V3.55537C6.44467 2.96606 6.67877 2.40089 7.09548 1.98418C7.51218 1.56748 8.07736 1.33337 8.66667 1.33337" stroke="#7B9FC3" stroke-linecap="round" stroke-linejoin="round"/>
</svg>
