<svg width="22" height="22" viewBox="0 0 22 22" fill="none" xmlns="http://www.w3.org/2000/svg">
<path d="M2.75001 13.7489V17.7489M10.75 7.74885V17.7489M20.75 20.7489H0.750008M18.75 11.7489V17.7489M4.35001 7.54885C4.19242 7.33874 3.99499 7.16172 3.769 7.02791C3.543 6.89409 3.29285 6.8061 3.03285 6.76896C2.77285 6.73181 2.50807 6.74624 2.25365 6.81143C1.99922 6.87661 1.76012 6.99127 1.55001 7.14885C1.33989 7.30644 1.16287 7.50387 1.02906 7.72987C0.895244 7.95587 0.807253 8.20601 0.770109 8.46601C0.695095 8.99111 0.831748 9.52451 1.15001 9.94885C1.46827 10.3732 1.94206 10.6537 2.46717 10.7288C2.99227 10.8038 3.52566 10.6671 3.95001 10.3489C4.37435 10.0306 4.65489 9.5568 4.72991 9.0317C4.80492 8.5066 4.66827 7.9732 4.35001 7.54885ZM4.35001 7.54885L9.15001 3.94885M9.15001 3.94885C9.35447 4.22187 9.62535 4.43806 9.93692 4.57688C10.2485 4.71569 10.5904 4.77252 10.9301 4.74195C11.2698 4.71139 11.5961 4.59445 11.8778 4.40225C12.1596 4.21005 12.3876 3.94898 12.54 3.64385M9.15001 3.94885C8.93657 3.66385 8.80309 3.32702 8.76336 2.97318C8.72363 2.61933 8.77908 2.2613 8.92399 1.93605C9.0689 1.6108 9.29802 1.33014 9.58767 1.12305C9.87733 0.915959 10.217 0.789953 10.5717 0.758047C10.9263 0.72614 11.283 0.789489 11.605 0.94155C11.9269 1.09361 12.2025 1.32887 12.4031 1.62303C12.6038 1.91719 12.7222 2.25958 12.7463 2.61483C12.7704 2.97009 12.6991 3.32533 12.54 3.64385M12.54 3.64385L16.96 5.85385C16.8425 6.08879 16.7724 6.34457 16.7537 6.6066C16.735 6.86863 16.7681 7.13178 16.8511 7.38101C17.0188 7.88436 17.3795 8.30049 17.854 8.53785C18.3285 8.77522 18.8778 8.81439 19.3812 8.64673C19.8845 8.47907 20.3006 8.11833 20.538 7.64386C20.7705 7.17009 20.8063 6.62364 20.6376 6.12358C20.469 5.62353 20.1095 5.2104 19.6376 4.97423C19.1656 4.73807 18.6195 4.698 18.1181 4.86276C17.6168 5.02753 17.2008 5.38377 16.961 5.85385" stroke="#DB1F26" stroke-width="1.5" stroke-linecap="round" stroke-linejoin="round"/>
</svg>
